<svg width="30" height="23" viewBox="0 0 30 23" fill="none" xmlns="http://www.w3.org/2000/svg">
<path d="M5 4.6H7.5V18.4H5V4.6ZM8.75 4.6H10V18.4H8.75V4.6ZM11.25 4.6H15V18.4H11.25V4.6ZM16.25 4.6H17.5V18.4H16.25V4.6ZM20 4.6H22.5V18.4H20V4.6ZM23.75 4.6H25V18.4H23.75V4.6ZM2.5 2.3V6.9H0V2.3C0 1.69 0.263392 1.10499 0.732233 0.673654C1.20107 0.242321 1.83696 0 2.5 0H7.5V2.3H2.5ZM27.5 0C28.163 0 28.7989 0.242321 29.2678 0.673654C29.7366 1.10499 30 1.69 30 2.3V6.9H27.5V2.3H22.5V0H27.5ZM2.5 16.1V20.7H7.5V23H2.5C1.83696 23 1.20107 22.7577 0.732233 22.3263C0.263392 21.895 0 21.31 0 20.7V16.1H2.5ZM27.5 20.7V16.1H30V20.7C30 21.31 29.7366 21.895 29.2678 22.3263C28.7989 22.7577 28.163 23 27.5 23H22.5V20.7H27.5Z" fill="#D9D9D9"/>
</svg>
