<svg width="50" height="50" viewBox="0 0 50 50" fill="none" xmlns="http://www.w3.org/2000/svg">
<path d="M8.33333 10H12.5V40H8.33333V10ZM14.5833 10H16.6667V40H14.5833V10ZM18.75 10H25V40H18.75V10ZM27.0833 10H29.1667V40H27.0833V10ZM33.3333 10H37.5V40H33.3333V10ZM39.5833 10H41.6667V40H39.5833V10ZM4.16667 5V15H0V5C0 3.67392 0.438987 2.40215 1.22039 1.46447C2.00179 0.526784 3.0616 0 4.16667 0H12.5V5H4.16667ZM45.8333 0C46.9384 0 47.9982 0.526784 48.7796 1.46447C49.561 2.40215 50 3.67392 50 5V15H45.8333V5H37.5V0H45.8333ZM4.16667 35V45H12.5V50H4.16667C3.0616 50 2.00179 49.4732 1.22039 48.5355C0.438987 47.5979 0 46.3261 0 45V35H4.16667ZM45.8333 45V35H50V45C50 46.3261 49.561 47.5979 48.7796 48.5355C47.9982 49.4732 46.9384 50 45.8333 50H37.5V45H45.8333Z" fill="#353535"/>
</svg>
