<svg width="65" height="47" viewBox="0 0 65 47" fill="none" xmlns="http://www.w3.org/2000/svg">
<path d="M0 10.2083H28.4375L30.625 14.5833H2.1875L0 10.2083ZM2.91667 18.9583H31.3542L33.5417 23.3333H5.10417L2.91667 18.9583ZM50.3125 42.2917C52.7333 42.2917 54.6875 40.3375 54.6875 37.9167C54.6875 35.4958 52.7333 33.5417 50.3125 33.5417C47.8917 33.5417 45.9375 35.4958 45.9375 37.9167C45.9375 40.3375 47.8917 42.2917 50.3125 42.2917ZM54.6875 16.0417H47.3958V23.3333H60.4042L54.6875 16.0417ZM21.1458 42.2917C23.5667 42.2917 25.5208 40.3375 25.5208 37.9167C25.5208 35.4958 23.5667 33.5417 21.1458 33.5417C18.725 33.5417 16.7708 35.4958 16.7708 37.9167C16.7708 40.3375 18.725 42.2917 21.1458 42.2917ZM56.1458 11.6667L64.8958 23.3333V37.9167H59.0625C59.0625 42.7583 55.1542 46.6667 50.3125 46.6667C45.4708 46.6667 41.5625 42.7583 41.5625 37.9167H29.8958C29.8958 42.7583 25.9583 46.6667 21.1458 46.6667C16.3042 46.6667 12.3958 42.7583 12.3958 37.9167H6.5625V27.7083H12.3958V32.0833H14.6125C16.2167 30.3042 18.55 29.1667 21.1458 29.1667C23.7417 29.1667 26.075 30.3042 27.6792 32.0833H41.5625V5.83333H6.5625C6.5625 2.59583 9.15833 0 12.3958 0H47.3958V11.6667H56.1458Z" fill="#353535"/>
</svg>
