<svg width="54" height="54" viewBox="0 0 54 54" fill="none" xmlns="http://www.w3.org/2000/svg">
<path d="M16.7135 10.0913C16.7135 5.73442 18.9271 2 21.7917 2H46.9219C49.6562 2 52 5.52696 52 10.0913V33.9502C52 38.3071 49.7865 42.0415 46.9219 42.0415H36.1146M36.2448 26.274L52 25.6515M40.6719 12.9958H47.4427M2 35.61H37.2865M13.3281 44.7385H17.8854M6.55729 44.7385H11.1146M25.8281 22.9542H32.7292M32.2083 52H7.07812C4.34375 52 2 48.4729 2 43.9088V20.0498C2 15.6929 4.21354 11.9585 7.07812 11.9585H32.2083C34.9427 11.9585 37.2865 15.4855 37.2865 20.0498V43.9088C37.2865 48.4729 34.9427 52 32.2083 52Z" stroke="#353535" stroke-width="4" stroke-miterlimit="10"/>
</svg>
