<svg width="40" height="40" viewBox="0 0 40 40" fill="none" xmlns="http://www.w3.org/2000/svg">
<path d="M19.9451 0C15.5641 0 12.0005 4.83353 12.0005 10.7732C12.0005 13.175 12.5902 15.3881 13.5739 17.1809C11.6364 19.0177 10.468 21.7562 10.468 24.6912V40H12.6786V24.6903C12.6786 22.6005 13.6123 20.6192 15.1519 19.342C16.4861 20.7179 18.1434 21.5438 19.9451 21.5438C21.7695 21.5438 23.4463 20.6985 24.7896 19.29C26.3676 20.5672 27.3234 22.5679 27.3234 24.6903V39.9991H29.534V24.6903C29.534 21.7086 28.3383 18.9472 26.3546 17.1121C27.3162 15.3309 27.891 13.1424 27.891 10.7723C27.8916 4.83353 24.3267 0 19.9451 0ZM19.9451 18.5488C16.7832 18.5488 14.2117 15.0594 14.2117 10.7732C14.2117 6.48525 16.7832 2.9976 19.9451 2.9976C23.1076 2.9976 25.681 6.48525 25.681 10.7732C25.681 15.0594 23.1076 18.5488 19.9451 18.5488Z" fill="#353535"/>
<path d="M2.21063 22.2665C2.21063 21.3472 2.59814 20.4711 3.23727 19.8268C4.0565 20.5654 5.03698 20.9991 6.09223 20.9991C8.94914 20.9991 11.2735 17.8507 11.2735 13.9788C11.2735 10.1051 8.94914 6.95503 6.09223 6.95503C3.23597 6.95503 0.91351 10.1051 0.91351 13.9788C0.91351 15.3264 1.20804 16.5727 1.69503 17.6419C0.627428 18.8397 0 20.4993 0 22.2656V31.1535H2.21063V22.2665ZM6.09158 9.95351C7.73004 9.95351 9.06162 11.7595 9.06162 13.9797C9.06162 16.1973 7.72939 18.0023 6.09158 18.0023C4.45441 18.0023 3.12349 16.1964 3.12349 13.9797C3.12349 11.7595 4.45506 9.95351 6.09158 9.95351Z" fill="#353535"/>
<path d="M38.2608 17.5934C38.7347 16.5348 39.0228 15.3053 39.0228 13.9797C39.0228 10.106 36.699 6.95591 33.8434 6.95591C30.9865 6.95591 28.6621 10.106 28.6621 13.9797C28.6621 17.8516 30.9865 20.9999 33.8434 20.9999C34.9136 20.9999 35.9097 20.5575 36.7354 19.8004C37.3921 20.4438 37.7894 21.3322 37.7894 22.2674V31.1553H40V22.2665C40.0007 20.4693 39.3557 18.7894 38.2608 17.5934ZM33.8434 18.0032C32.2049 18.0032 30.8727 16.1973 30.8727 13.9806C30.8727 11.7595 32.2056 9.95439 33.8434 9.95439C35.4806 9.95439 36.8115 11.7604 36.8115 13.9806C36.8115 16.1973 35.4806 18.0032 33.8434 18.0032Z" fill="#353535"/>
</svg>
