<svg width="30" height="30" viewBox="0 0 30 30" fill="none" xmlns="http://www.w3.org/2000/svg">
<path d="M30 15V28.8462C30 29.1522 29.8784 29.4457 29.662 29.662C29.4457 29.8784 29.1522 30 28.8462 30H1.15385C0.847827 30 0.554342 29.8784 0.337954 29.662C0.121566 29.4457 0 29.1522 0 28.8462V1.15385C0 0.847827 0.121566 0.554342 0.337954 0.337954C0.554342 0.121566 0.847827 0 1.15385 0H15C15.306 0 15.5995 0.121566 15.8159 0.337954C16.0323 0.554342 16.1538 0.847827 16.1538 1.15385C16.1538 1.45987 16.0323 1.75335 15.8159 1.96974C15.5995 2.18613 15.306 2.30769 15 2.30769H2.30769V27.6923H27.6923V15C27.6923 14.694 27.8139 14.4005 28.0303 14.1841C28.2466 13.9677 28.5401 13.8462 28.8462 13.8462C29.1522 13.8462 29.4457 13.9677 29.662 14.1841C29.8784 14.4005 30 14.694 30 15ZM8.60769 15.15L22.2577 1.48846C23.087 0.65915 24.2118 0.193248 25.3846 0.193248C26.5574 0.193248 27.6822 0.65915 28.5115 1.48846C29.3408 2.31777 29.8068 3.44256 29.8068 4.61538C29.8068 5.78821 29.3408 6.913 28.5115 7.74231L14.85 21.3923C14.7268 21.5167 14.5768 21.6114 14.4115 21.6692L7.30385 24.1615C7.18173 24.2059 7.05299 24.2293 6.92308 24.2308C6.73922 24.23 6.55819 24.1854 6.39509 24.1005C6.23199 24.0157 6.09152 23.893 5.98541 23.7429C5.87929 23.5927 5.81058 23.4194 5.78502 23.2373C5.75946 23.0553 5.77779 22.8697 5.83846 22.6962L8.33077 15.5885C8.38861 15.4232 8.48331 15.2732 8.60769 15.15ZM8.80385 21.1962L13.4192 19.5808L26.8731 6.10385C27.2678 5.70908 27.4896 5.17367 27.4896 4.61538C27.4896 4.0571 27.2678 3.52169 26.8731 3.12692C26.4783 2.73216 25.9429 2.51038 25.3846 2.51038C24.8263 2.51038 24.2909 2.73216 23.8962 3.12692L10.3846 16.5923L8.80385 21.1962Z" fill="#353535"/>
</svg>
