<svg width="25" height="30" viewBox="0 0 25 30" fill="none" xmlns="http://www.w3.org/2000/svg">
<path d="M25 9.36397V4.92187C25 4.40404 24.5472 3.98382 23.9899 3.98382H17.2977V0.9375C17.2977 0.420221 16.8455 0 16.2882 0H8.71242C8.15449 0 7.70172 0.420221 7.70172 0.9375V3.98382H1.0101C0.452169 3.98382 0 4.40404 0 4.92187V9.36397C0 9.88125 0.452169 10.3009 1.0101 10.3009H1.30006V29.0625C1.30006 29.5798 1.75223 30 2.30957 30H19.8265C21.9626 30 23.7005 28.3875 23.7005 26.4055V10.3015H23.9893C24.5472 10.3015 25 9.8818 25 9.36397ZM9.72192 1.875H15.2775V3.98382H9.72192V1.875ZM21.6809 26.4061C21.6809 27.354 20.8491 28.125 19.8271 28.125H3.32086V10.3015L21.6809 10.3026V26.4061ZM22.9792 8.42647H2.01961V5.85938H22.9798L22.9792 8.42647Z" fill="#353535"/>
<path d="M8.4587 14.0625H6.4385V25.0781H8.4587V14.0625Z" fill="#353535"/>
<path d="M13.5092 14.0625H11.489V25.0781H13.5092V14.0625Z" fill="#353535"/>
<path d="M18.5597 14.0625H16.5395V25.0781H18.5597V14.0625Z" fill="#353535"/>
</svg>
