<svg width="24" height="24" viewBox="0 0 24 24" fill="none" xmlns="http://www.w3.org/2000/svg">
<path d="M9.5091 0C4.26293 0 0 4.16584 0 9.29253C0 14.4192 4.26293 18.5851 9.5091 18.5851C11.5849 18.5851 13.5033 17.9317 15.0677 16.8256L22.4268 24L24 22.4626L16.7283 15.3395C18.1573 13.7125 19.0182 11.6007 19.0182 9.29253C19.0182 4.16584 14.7553 0 9.5091 0ZM9.5091 1.09324C14.15 1.09324 17.8995 4.7573 17.8995 9.29253C17.8995 13.8278 14.15 17.4918 9.5091 17.4918C4.86817 17.4918 1.11872 13.8278 1.11872 9.29253C1.11872 4.7573 4.86817 1.09324 9.5091 1.09324Z" fill="#D9D9D9"/>
</svg>
