<svg width="30" height="30" viewBox="0 0 30 30" fill="none" xmlns="http://www.w3.org/2000/svg">
<path d="M15 0C12.0333 0 9.13319 0.879735 6.66645 2.52796C4.19972 4.17618 2.27713 6.51886 1.14181 9.25975C0.00649929 12.0006 -0.290551 15.0166 0.288228 17.9264C0.867006 20.8361 2.29562 23.5088 4.3934 25.6066C6.49119 27.7044 9.16394 29.133 12.0737 29.7118C14.9834 30.2906 17.9994 29.9935 20.7403 28.8582C23.4811 27.7229 25.8238 25.8003 27.4721 23.3336C29.1203 20.8668 30 17.9667 30 15C29.9957 11.0231 28.4139 7.2103 25.6018 4.39819C22.7897 1.58609 18.9769 0.00434263 15 0ZM15 28.5938C12.3114 28.5938 9.6832 27.7965 7.44772 26.3028C5.21224 24.8091 3.4699 22.686 2.44102 20.2021C1.41214 17.7182 1.14294 14.9849 1.66746 12.348C2.19197 9.71106 3.48665 7.28889 5.38777 5.38777C7.28889 3.48665 9.71107 2.19197 12.348 1.66745C14.9849 1.14293 17.7182 1.41213 20.2021 2.44101C22.686 3.46989 24.8091 5.21224 26.3028 7.44772C27.7965 9.6832 28.5938 12.3114 28.5938 15C28.5894 18.604 27.1558 22.0591 24.6074 24.6074C22.0591 27.1558 18.604 28.5894 15 28.5938Z" fill="#353535"/>
<path d="M21.0938 14.2969H15.7032V8.90625C15.7032 8.71977 15.6291 8.54093 15.4972 8.40907C15.3654 8.2772 15.1865 8.20312 15 8.20312C14.8135 8.20312 14.6347 8.2772 14.5028 8.40907C14.371 8.54093 14.2969 8.71977 14.2969 8.90625V14.2969H8.90628C8.7198 14.2969 8.54096 14.371 8.40909 14.5028C8.27723 14.6347 8.20315 14.8135 8.20315 15C8.20315 15.1865 8.27723 15.3653 8.40909 15.4972C8.54096 15.629 8.7198 15.7031 8.90628 15.7031H14.2969V21.0938C14.2969 21.2802 14.371 21.4591 14.5028 21.5909C14.6347 21.7228 14.8135 21.7969 15 21.7969C15.1865 21.7969 15.3654 21.7228 15.4972 21.5909C15.6291 21.4591 15.7032 21.2802 15.7032 21.0938V15.7031H21.0938C21.2803 15.7031 21.4591 15.629 21.591 15.4972C21.7228 15.3653 21.7969 15.1865 21.7969 15C21.7969 14.8135 21.7228 14.6347 21.591 14.5028C21.4591 14.371 21.2803 14.2969 21.0938 14.2969Z" fill="#353535"/>
</svg>
