<svg width="31" height="22" viewBox="0 0 31 22" fill="none" xmlns="http://www.w3.org/2000/svg">
<path d="M3.28125 0C1.48254 0 0 1.48254 0 3.28125V18.5938C0 20.3925 1.48254 21.875 3.28125 21.875H27.3438C29.1425 21.875 30.625 20.3925 30.625 18.5938V3.28125C30.625 1.48254 29.1425 0 27.3438 0H3.28125ZM3.28125 2.1875H27.3438C27.9633 2.1875 28.4375 2.66174 28.4375 3.28125V18.5938C28.4375 19.2133 27.9633 19.6875 27.3438 19.6875H3.28125C2.66174 19.6875 2.1875 19.2133 2.1875 18.5938V3.28125C2.1875 2.66174 2.66174 2.1875 3.28125 2.1875ZM10.9375 3.28125C6.72058 3.28125 3.28125 6.72058 3.28125 10.9375C3.28125 15.1544 6.72058 18.5938 10.9375 18.5938C12.561 18.5938 14.0692 18.0981 15.3125 17.2266C16.5515 18.0939 18.0597 18.5938 19.6875 18.5938C23.9044 18.5938 27.3438 15.1544 27.3438 10.9375C27.3438 6.72058 23.9044 3.28125 19.6875 3.28125C18.0597 3.28125 16.5515 3.78113 15.3125 4.64844C14.0692 3.77686 12.561 3.28125 10.9375 3.28125ZM10.9375 5.46875C12.3389 5.46875 13.595 6.01135 14.5605 6.87012C14.1119 7.42981 13.7445 8.06213 13.501 8.75H15.9277C16.0815 9.10034 16.2268 9.4635 16.3037 9.84375H13.2275C13.1677 10.1984 13.125 10.5615 13.125 10.9375C13.125 11.3135 13.1677 11.6766 13.2275 12.0312H16.3037C16.2268 12.4115 16.0815 12.7747 15.9277 13.125H13.501C13.7445 13.8129 14.1119 14.4452 14.5605 15.0049C13.595 15.8636 12.3389 16.4062 10.9375 16.4062C7.90405 16.4062 5.46875 13.9709 5.46875 10.9375C5.46875 7.90405 7.90405 5.46875 10.9375 5.46875ZM19.6875 5.46875C22.7209 5.46875 25.1562 7.90405 25.1562 10.9375C25.1562 13.9709 22.7209 16.4062 19.6875 16.4062C18.6877 16.4062 17.7606 16.1243 16.9531 15.6543C17.9828 14.3512 18.5938 12.7191 18.5938 10.9375C18.5938 9.15588 17.9828 7.5238 16.9531 6.2207C17.7606 5.75073 18.6877 5.46875 19.6875 5.46875Z" fill="#D9D9D9"/>
</svg>
