<svg width="23" height="23" viewBox="0 0 23 23" fill="none" xmlns="http://www.w3.org/2000/svg">
<path d="M4.15625 0L3.96875 0.78125L0.28125 17.7812L0 19H4.875L4.28125 21.7812L4 23H10.9688L11.125 22.1875L12.1562 17.375H14.8438C18.6055 17.375 21.9102 14.9297 22.75 11C23.1914 8.93359 22.7227 7.18359 21.75 6C20.9609 5.03906 19.8906 4.46094 18.7812 4.1875C18.5664 3.19922 18.1133 2.35938 17.5 1.71875C16.3633 0.535156 14.7852 0 13.3125 0H4.15625ZM5.78125 2H13.3125C14.293 2 15.375 2.37891 16.0625 3.09375C16.75 3.80859 17.1523 4.82812 16.7812 6.5625C16.1211 9.65625 13.7852 11.375 10.8438 11.375H6.53125L6.375 12.1562L5.34375 17H2.5L5.78125 2ZM8.3125 3.46875L8.125 4.25L7.09375 8.875L6.8125 10.0938H10.3438C12.1211 10.0938 13.6562 8.80078 14.0938 7.0625H14.125C14.1289 7.04297 14.1211 7.01953 14.125 7C14.3438 6.125 14.2031 5.22656 13.7188 4.5625C13.2227 3.88281 12.3867 3.46875 11.5 3.46875H8.3125ZM9.90625 5.46875H11.5C11.8125 5.46875 11.9766 5.55859 12.0938 5.71875C12.2109 5.87891 12.293 6.13672 12.1875 6.53125V6.5625C12 7.37109 11.043 8.09375 10.3438 8.09375H9.3125L9.90625 5.46875ZM18.8438 6.34375C19.3711 6.55859 19.8672 6.85156 20.2188 7.28125C20.8008 7.98828 21.1211 8.96484 20.7812 10.5625C20.1211 13.6562 17.7852 15.375 14.8438 15.375H10.5312L10.375 16.1562L9.34375 21H6.5L6.9375 19H6.96875L7.125 18.1875L8.15625 13.375H10.8438C14.6055 13.375 17.9102 10.9297 18.75 7C18.7969 6.77344 18.8164 6.5625 18.8438 6.34375Z" fill="#D9D9D9"/>
</svg>
