<svg width="101" height="111" viewBox="0 0 101 111" fill="none" xmlns="http://www.w3.org/2000/svg">
<path d="M50.5 0C31.0299 0 15.15 15.8656 15.15 35.3182C15.15 47.3997 21.3047 58.1213 30.6156 64.4872C12.5461 72.1737 0 90.1087 0 111H10.1C10.1 88.4728 27.9525 70.6364 50.5 70.6364C73.0475 70.6364 90.9 88.4728 90.9 111H101C101 90.1087 88.4539 72.1737 70.3844 64.4872C79.6953 58.1213 85.85 47.3997 85.85 35.3182C85.85 15.8656 69.9701 0 50.5 0ZM50.5 10.0909C64.5059 10.0909 75.75 21.3249 75.75 35.3182C75.75 49.3114 64.5059 60.5455 50.5 60.5455C36.4941 60.5455 25.25 49.3114 25.25 35.3182C25.25 21.3249 36.4941 10.0909 50.5 10.0909Z" fill="#353535"/>
</svg>
