<svg width="24" height="24" viewBox="0 0 24 24" fill="none" xmlns="http://www.w3.org/2000/svg">
<path d="M12 0C5.37323 0 0 5.37323 0 12C0 17.0838 3.16292 21.426 7.62692 23.1738C7.52215 22.2249 7.42708 20.7678 7.66892 19.7317C7.88677 18.7957 9.07615 13.7668 9.07615 13.7668C9.07615 13.7668 8.71708 13.0477 8.71708 11.9857C8.71708 10.3168 9.684 9.07154 10.8882 9.07154C11.9123 9.07154 12.4062 9.84046 12.4062 10.7617C12.4062 11.7918 11.7512 13.3306 11.412 14.7568C11.1291 15.9517 12.0111 16.926 13.1889 16.926C15.3217 16.926 16.9611 14.6769 16.9611 11.4309C16.9611 8.55785 14.8971 6.54877 11.9492 6.54877C8.53523 6.54877 6.53123 9.10985 6.53123 11.7568C6.53123 12.7878 6.92815 13.8937 7.42431 14.4955C7.52215 14.6146 7.53646 14.7185 7.50738 14.8394C7.41646 15.2183 7.21431 16.0334 7.17415 16.2005C7.122 16.4206 7.00015 16.4663 6.77308 16.3606C5.274 15.6628 4.33708 13.4718 4.33708 11.7115C4.33708 7.92646 7.08692 4.44969 12.2663 4.44969C16.4294 4.44969 19.6643 7.41554 19.6643 11.3806C19.6643 15.5165 17.0562 18.8446 13.4372 18.8446C12.2211 18.8446 11.0783 18.2128 10.6874 17.4665C10.6874 17.4665 10.0855 19.7575 9.93923 20.3192C9.66831 21.3614 8.93723 22.6685 8.44708 23.4651C9.57 23.8122 10.7631 24 12 24C18.6268 24 24 18.6268 24 12C24 5.37323 18.6272 0 12 0Z" fill="#D9D9D9"/>
</svg>
