<svg width="35" height="40" viewBox="0 0 35 40" fill="none" xmlns="http://www.w3.org/2000/svg">
<path d="M4.2142 0.388549L0.085556 6.28128C0.0365129 6.35133 0.00733143 6.4338 0.00121046 6.51965C-0.00491052 6.6055 0.0122655 6.69141 0.0508555 6.76796C0.0894455 6.84451 0.14796 6.90875 0.219983 6.95364C0.292006 6.99852 0.374758 7.02232 0.459166 7.02242L12.1299 7.03383L17.0211 0H4.95448C4.80968 3.81157e-05 4.66697 0.0353114 4.53822 0.102889C4.40947 0.170468 4.29839 0.268399 4.2142 0.388549Z" fill="#D9D9D9"/>
<path d="M34.9144 6.32005L30.7588 0.388549C30.6745 0.268377 30.5634 0.170434 30.4346 0.102857C30.3058 0.035279 30.163 1.71847e-05 30.0182 0H17.9584L22.8348 7.04978L34.5398 7.06119C34.6243 7.06131 34.7072 7.03766 34.7793 6.99286C34.8515 6.94806 34.9102 6.88383 34.9489 6.80723C34.9876 6.73063 35.0049 6.64464 34.9988 6.55869C34.9927 6.47274 34.9635 6.39017 34.9144 6.32005Z" fill="#D9D9D9"/>
<path d="M21.6195 8.51233L18.3971 3.85386V18.2001H30.0186C30.3315 18.2001 30.6316 18.0734 30.8528 17.8478C31.0741 17.6222 31.1984 17.3162 31.1984 16.9971V8.91421L22.362 8.90555C22.2165 8.90525 22.0731 8.86939 21.9439 8.80098C21.8147 8.73256 21.7034 8.63358 21.6195 8.51233Z" fill="#D9D9D9"/>
<path d="M12.5998 8.89066L3.7745 8.89802V16.9971C3.7745 17.3162 3.8988 17.6222 4.12004 17.8478C4.34129 18.0734 4.64137 18.2002 4.95425 18.2002H16.5765V3.8477L13.342 8.49909C13.2579 8.61999 13.1466 8.71862 13.0175 8.78674C12.8884 8.85486 12.7451 8.89049 12.5998 8.89066Z" fill="#D9D9D9"/>
<path d="M6.19182 23.1789H1.77073C1.67836 23.1789 1.5869 23.1975 1.50157 23.2335C1.41624 23.2696 1.3387 23.3224 1.2734 23.389C1.20809 23.4556 1.15629 23.5347 1.12096 23.6217C1.08562 23.7088 1.06745 23.802 1.06747 23.8962V39.2826C1.06745 39.4729 1.14153 39.6553 1.27341 39.7898C1.4053 39.9244 1.58419 40 1.77073 40H6.19182C6.3932 40 6.59261 39.9596 6.77866 39.8811C6.96472 39.8025 7.13378 39.6873 7.27618 39.5421C7.41859 39.3969 7.53155 39.2246 7.60862 39.0349C7.68569 38.8451 7.72536 38.6418 7.72536 38.4365V24.7423C7.72534 24.537 7.68566 24.3337 7.60858 24.144C7.5315 23.9543 7.41854 23.7819 7.27613 23.6367C7.13373 23.4916 6.96468 23.3764 6.77863 23.2979C6.59258 23.2193 6.39319 23.1789 6.19182 23.1789Z" fill="#D9D9D9"/>
<path d="M33.9814 24.9857C33.7477 24.6229 33.4291 24.325 33.0543 24.1191C32.6795 23.9131 32.2603 23.8056 31.8345 23.8061H30.102C29.3586 23.8046 28.6317 24.0289 28.0138 24.4504C27.396 24.872 26.9153 25.4717 26.6332 26.173C26.4658 26.5808 26.2324 26.957 25.9429 27.2861C25.4508 28.0566 24.785 28.6957 24.0011 29.15C23.2172 29.6043 22.338 29.8607 21.437 29.8976L16.3053 29.8979C16.0639 29.8979 15.8324 29.8002 15.6617 29.6261C15.4911 29.4521 15.3952 29.216 15.3952 28.9699C15.3952 28.7237 15.4911 28.4877 15.6617 28.3136C15.8324 28.1396 16.0639 28.0418 16.3053 28.0418H21.4127C22.0689 28.0247 22.7064 27.8155 23.2493 27.4392V27.4077C23.2511 26.9354 23.1614 26.4675 22.9854 26.0306C22.8094 25.5937 22.5506 25.1966 22.2238 24.862C21.8969 24.5274 21.5085 24.2619 21.0808 24.0807C20.6532 23.8995 20.1946 23.8062 19.7315 23.8061H15.9657C15.2776 23.8042 14.5959 23.9411 13.9599 24.209C13.3238 24.4769 12.7461 24.8705 12.2599 25.3671L12.1638 25.4647C11.4513 26.1902 10.5364 26.6735 9.54422 26.8483V37.0991H23.2774C25.3136 37.1004 27.3054 36.4922 29.0059 35.35C30.7064 34.2079 32.0407 32.5819 32.8435 30.6737L34.1964 27.4626C34.3651 27.0641 34.4338 26.6289 34.3962 26.1965C34.3587 25.764 34.2161 25.3479 33.9814 24.9857Z" fill="#D9D9D9"/>
</svg>
