<svg width="40" height="40" viewBox="0 0 40 40" fill="none" xmlns="http://www.w3.org/2000/svg">
<path d="M4.99997 6.25012V1.25001C4.99997 0.559012 5.55898 0 6.25015 0C6.94098 0 7.49999 0.559012 7.49999 1.25001V6.25012C7.49999 6.94095 6.94098 7.49996 6.25015 7.49996C5.55898 7.50005 4.99997 6.94095 4.99997 6.25012ZM26.2503 7.50005C26.9409 7.50005 27.5003 6.94103 27.5003 6.2502V1.25001C27.5003 0.559012 26.9409 0 26.2503 0C25.5593 0 24.9998 0.559012 24.9998 1.25001V6.25012C24.9998 6.94095 25.5593 7.50005 26.2503 7.50005ZM40 29.9997C40 35.5227 35.5226 40 30 40C24.4778 40 20 35.5227 20 29.9997C20 24.4775 24.4777 20 30 20C35.5226 20 40 24.4774 40 29.9997ZM37.5003 29.9997C37.5003 25.8645 34.136 22.4998 30.0001 22.4998C25.8645 22.4998 22.5001 25.8644 22.5001 29.9997C22.5001 34.1357 25.8645 37.4999 30.0001 37.4999C34.136 37.4999 37.5003 34.1357 37.5003 29.9997ZM10.0001 15H4.99997V20H10.0001V15ZM4.99997 27.5H10.0001V22.4998H4.99997V27.5ZM12.5 20H17.5002V15H12.5V20ZM12.5 27.5H17.5002V22.4998H12.5V27.5ZM2.50011 29.7511V12.4999H30.0001V17.5H32.5002V7.74917C32.5002 6.23058 31.289 4.99995 29.7927 4.99995H28.75V6.2502C28.75 7.627 27.6292 8.75014 26.2504 8.75014C24.8711 8.75014 23.7503 7.627 23.7503 6.2502V4.99995H8.74993V6.2502C8.74993 7.627 7.62934 8.75014 6.25023 8.75014C4.87079 8.75014 3.75012 7.627 3.75012 6.2502V4.99995H2.70876C1.21234 4.99995 0 6.23058 0 7.74917V29.7512C0 31.2648 1.21234 32.5002 2.70876 32.5002H17.5002V29.9998H2.70876C2.59549 29.9997 2.50011 29.8827 2.50011 29.7511ZM24.9998 20V15H20.0001V20H24.9998ZM33.7501 29.9997H30V26.2496C30 25.559 29.441 25 28.75 25C28.059 25 27.5003 25.559 27.5003 26.2496V31.2501C27.5003 31.9408 28.059 32.5001 28.75 32.5001H33.7501C34.4411 32.5001 35.0001 31.9408 35.0001 31.2501C35.0001 30.5591 34.4411 29.9997 33.7501 29.9997Z" fill="#353535"/>
</svg>
