<svg width="30" height="35" viewBox="0 0 30 35" fill="none" xmlns="http://www.w3.org/2000/svg">
<path d="M24.9998 12.0314C24.9998 5.39623 20.5153 0 15 0C9.4871 0 5.0001 5.39623 5.0001 12.0314H0V35H30V12.0314H24.9998ZM6.24993 16.4064C5.55911 16.4064 5.0001 15.9172 5.0001 15.3126C5.0001 14.7081 5.55911 14.2188 6.24993 14.2188C6.94093 14.2188 7.49994 14.7081 7.49994 15.3126C7.49994 15.9172 6.94093 16.4064 6.24993 16.4064ZM15 2.18759C19.1355 2.18759 22.5001 6.60331 22.5001 12.0315H7.49994C7.49994 6.60324 10.8644 2.18759 15 2.18759ZM23.7498 16.4064C23.0588 16.4064 22.5001 15.9172 22.5001 15.3126C22.5001 14.7081 23.0588 14.2188 23.7498 14.2188C24.4408 14.2188 24.9998 14.7081 24.9998 15.3126C24.9998 15.9172 24.4408 16.4064 23.7498 16.4064Z" fill="#D9D9D9"/>
</svg>
