<svg width="28" height="21" viewBox="0 0 28 21" fill="none" xmlns="http://www.w3.org/2000/svg">
<path d="M28 2.48939C26.9701 2.90989 25.8626 3.19584 24.7005 3.32199C25.8854 2.666 26.7969 1.62735 27.2253 0.391069C26.1178 0.996595 24.8874 1.43813 23.5794 1.67781C22.5312 0.647576 21.0365 0 19.3867 0C16.2148 0 13.64 2.37585 13.64 5.30256C13.64 5.71886 13.6901 6.12255 13.7904 6.50941C9.01433 6.29075 4.7806 4.17982 1.95052 0.971366C1.45378 1.7535 1.17122 2.666 1.17122 3.63736C1.17122 5.47497 2.18294 7.09812 3.72786 8.04846C2.78451 8.01902 1.90039 7.78354 1.12565 7.38406C1.12565 7.40929 1.12565 7.43032 1.12565 7.45134C1.12565 10.0206 3.10352 12.1652 5.73307 12.6488C5.25 12.7707 4.74414 12.838 4.22005 12.838C3.85091 12.838 3.48633 12.8044 3.13997 12.7413C3.86914 14.848 5.99284 16.3787 8.50391 16.4249C6.53971 17.8462 4.06055 18.6914 1.37174 18.6914C0.906901 18.6914 0.451172 18.6662 0 18.6157C2.54297 20.1211 5.5599 21 8.80469 21C19.373 21 25.1517 12.9221 25.1517 5.9165C25.1517 5.68943 25.1426 5.45815 25.1335 5.23108C26.2546 4.48258 27.2298 3.54906 28 2.48939Z" fill="#D9D9D9"/>
</svg>
